<svg width="30" height="30" viewBox="0 0 30 30" fill="none" xmlns="http://www.w3.org/2000/svg">
<circle cx="15" cy="15" r="15" fill="#2B2B2B"/>
<path d="M12.55 18.15L21.025 9.675C21.225 9.475 21.4583 9.375 21.725 9.375C21.9917 9.375 22.225 9.475 22.425 9.675C22.625 9.875 22.725 10.1127 22.725 10.388C22.725 10.6633 22.625 10.9007 22.425 11.1L13.25 20.3C13.05 20.5 12.8167 20.6 12.55 20.6C12.2833 20.6 12.05 20.5 11.85 20.3L7.55 16C7.35 15.8 7.254 15.5627 7.262 15.288C7.27 15.0133 7.37433 14.7757 7.575 14.575C7.77566 14.3743 8.01333 14.2743 8.288 14.275C8.56266 14.2757 8.8 14.3757 9 14.575L12.55 18.15Z" fill="white"/>
</svg>
