<svg width="20" height="20" viewBox="0 0 20 20" fill="none" xmlns="http://www.w3.org/2000/svg">
<circle cx="10" cy="10" r="10" fill="#F5DE89"/>
<path d="M8.36666 12.1L14.0167 6.45C14.15 6.31667 14.3055 6.25 14.4833 6.25C14.6611 6.25 14.8167 6.31667 14.95 6.45C15.0833 6.58333 15.15 6.74178 15.15 6.92533C15.15 7.10889 15.0833 7.26711 14.95 7.4L8.83333 13.5333C8.69999 13.6667 8.54444 13.7333 8.36666 13.7333C8.18888 13.7333 8.03333 13.6667 7.89999 13.5333L5.03333 10.6667C4.89999 10.5333 4.83599 10.3751 4.84133 10.192C4.84666 10.0089 4.91622 9.85044 5.04999 9.71667C5.18377 9.58289 5.34222 9.51622 5.52533 9.51667C5.70844 9.51711 5.86666 9.58378 5.99999 9.71667L8.36666 12.1Z" fill="#2B2B2B"/>
</svg>
