<svg width="240" height="207" viewBox="0 0 240 207" fill="none" xmlns="http://www.w3.org/2000/svg">
<rect x="7.5" y="46.5" width="231" height="155" rx="18.5" fill="#2B2B2B" stroke="#2B2B2B" stroke-width="3"/>
<rect x="1.5" y="50.5" width="231" height="155" rx="18.5" fill="white" stroke="#2B2B2B" stroke-width="3"/>
<path d="M30.33 5.95L35.85 4H39.45V25H35.31V8.38L31.35 9.49L30.33 5.95ZM62.1516 25H48.1116V21.91L55.2816 14.53C56.8816 12.83 57.6816 11.43 57.6816 10.33C57.6816 9.51 57.4216 8.85 56.9016 8.35C56.4016 7.85 55.7516 7.6 54.9516 7.6C53.3516 7.6 52.1816 8.42 51.4416 10.06L47.9616 8.02C48.6016 6.6 49.5316 5.51 50.7516 4.75C51.9916 3.97 53.3716 3.58 54.8916 3.58C56.7916 3.58 58.4216 4.18 59.7816 5.38C61.1416 6.56 61.8216 8.16 61.8216 10.18C61.8216 12.36 60.6716 14.6 58.3716 16.9L54.2616 21.01H62.1516V25ZM71.4961 25.42C68.8761 25.42 66.8161 24.43 65.3161 22.45C63.8361 20.43 63.0961 17.78 63.0961 14.5C63.0961 11.22 63.8361 8.58 65.3161 6.58C66.8161 4.58 68.8761 3.58 71.4961 3.58C74.1561 3.58 76.2161 4.58 77.6761 6.58C79.1561 8.58 79.8961 11.22 79.8961 14.5C79.8961 17.78 79.1561 20.43 77.6761 22.45C76.2161 24.43 74.1561 25.42 71.4961 25.42ZM75.7861 14.5C75.7861 12.26 75.4161 10.55 74.6761 9.37C73.9561 8.19 72.8961 7.6 71.4961 7.6C70.0961 7.6 69.0361 8.19 68.3161 9.37C67.5961 10.55 67.2361 12.26 67.2361 14.5C67.2361 16.74 67.5961 18.45 68.3161 19.63C69.0361 20.79 70.0961 21.37 71.4961 21.37C72.8961 21.37 73.9561 20.78 74.6761 19.6C75.4161 18.42 75.7861 16.72 75.7861 14.5ZM89.4926 25.42C86.8726 25.42 84.8126 24.43 83.3126 22.45C81.8326 20.43 81.0926 17.78 81.0926 14.5C81.0926 11.22 81.8326 8.58 83.3126 6.58C84.8126 4.58 86.8726 3.58 89.4926 3.58C92.1526 3.58 94.2126 4.58 95.6726 6.58C97.1526 8.58 97.8926 11.22 97.8926 14.5C97.8926 17.78 97.1526 20.43 95.6726 22.45C94.2126 24.43 92.1526 25.42 89.4926 25.42ZM93.7826 14.5C93.7826 12.26 93.4126 10.55 92.6726 9.37C91.9526 8.19 90.8926 7.6 89.4926 7.6C88.0926 7.6 87.0326 8.19 86.3126 9.37C85.5926 10.55 85.2326 12.26 85.2326 14.5C85.2326 16.74 85.5926 18.45 86.3126 19.63C87.0326 20.79 88.0926 21.37 89.4926 21.37C90.8926 21.37 91.9526 20.78 92.6726 19.6C93.4126 18.42 93.7826 16.72 93.7826 14.5ZM111.239 17.8H99.9891V14.08H111.239V17.8ZM112.616 5.95L118.136 4H121.736V25H117.596V8.38L113.636 9.49L112.616 5.95ZM135.827 11.65H137.987C140.027 11.65 141.727 12.26 143.087 13.48C144.467 14.68 145.157 16.36 145.157 18.52C145.157 20.68 144.427 22.37 142.967 23.59C141.547 24.81 139.777 25.42 137.657 25.42C135.937 25.42 134.427 25.04 133.127 24.28C131.847 23.5 130.917 22.38 130.337 20.92L133.877 18.85C134.377 20.53 135.637 21.37 137.657 21.37C138.717 21.37 139.537 21.12 140.117 20.62C140.717 20.1 141.017 19.4 141.017 18.52C141.017 17.66 140.727 16.97 140.147 16.45C139.567 15.93 138.777 15.67 137.777 15.67H131.417L132.257 4H144.167V7.87H136.097L135.827 11.65ZM154.221 25.42C151.601 25.42 149.541 24.43 148.041 22.45C146.561 20.43 145.821 17.78 145.821 14.5C145.821 11.22 146.561 8.58 148.041 6.58C149.541 4.58 151.601 3.58 154.221 3.58C156.881 3.58 158.941 4.58 160.401 6.58C161.881 8.58 162.621 11.22 162.621 14.5C162.621 17.78 161.881 20.43 160.401 22.45C158.941 24.43 156.881 25.42 154.221 25.42ZM158.511 14.5C158.511 12.26 158.141 10.55 157.401 9.37C156.681 8.19 155.621 7.6 154.221 7.6C152.821 7.6 151.761 8.19 151.041 9.37C150.321 10.55 149.961 12.26 149.961 14.5C149.961 16.74 150.321 18.45 151.041 19.63C151.761 20.79 152.821 21.37 154.221 21.37C155.621 21.37 156.681 20.78 157.401 19.6C158.141 18.42 158.511 16.72 158.511 14.5ZM172.218 25.42C169.598 25.42 167.538 24.43 166.038 22.45C164.558 20.43 163.818 17.78 163.818 14.5C163.818 11.22 164.558 8.58 166.038 6.58C167.538 4.58 169.598 3.58 172.218 3.58C174.878 3.58 176.938 4.58 178.398 6.58C179.878 8.58 180.618 11.22 180.618 14.5C180.618 17.78 179.878 20.43 178.398 22.45C176.938 24.43 174.878 25.42 172.218 25.42ZM176.508 14.5C176.508 12.26 176.138 10.55 175.398 9.37C174.678 8.19 173.618 7.6 172.218 7.6C170.818 7.6 169.758 8.19 169.038 9.37C168.318 10.55 167.958 12.26 167.958 14.5C167.958 16.74 168.318 18.45 169.038 19.63C169.758 20.79 170.818 21.37 172.218 21.37C173.618 21.37 174.678 20.78 175.398 19.6C176.138 18.42 176.508 16.72 176.508 14.5ZM203.084 19.12C203.084 20.84 202.534 22.26 201.434 23.38C200.334 24.48 198.864 25.14 197.024 25.36V28H195.014V25.39C193.334 25.27 191.894 24.8 190.694 23.98C189.494 23.16 188.634 22.05 188.114 20.65L191.684 18.58C192.324 20.2 193.434 21.11 195.014 21.31V16.12H194.984L194.924 16.09C193.704 15.65 192.614 15.13 191.654 14.53C190.034 13.51 189.164 11.89 189.044 9.67C189.044 7.89 189.614 6.48 190.754 5.44C191.954 4.36 193.374 3.75 195.014 3.61V1H197.024V3.67C199.744 4.01 201.664 5.42 202.784 7.9L199.304 9.94C198.824 8.74 198.064 8.01 197.024 7.75V12.76C198.964 13.54 200.214 14.13 200.774 14.53C202.314 15.65 203.084 17.18 203.084 19.12ZM193.154 9.7C193.154 10.14 193.294 10.53 193.574 10.87C193.854 11.19 194.334 11.52 195.014 11.86V7.66C193.774 7.9 193.154 8.58 193.154 9.7ZM197.024 16.93V21.25C198.304 20.99 198.944 20.29 198.944 19.15C198.944 18.25 198.304 17.51 197.024 16.93Z" fill="#2B2B2B"/>
<rect x="69" y="104" width="95" height="33" rx="16.5" fill="#EFEFEF"/>
<path d="M80.3 113H83.06V127H80.3V113ZM91.6916 117H94.2716V127H91.6916V123.2H87.7116V127H85.1316V117H87.7116V120.78H91.6916V117ZM104.115 117V119.48H100.995V127H98.4155V119.48H95.2555V117H104.115ZM106.883 123.06C107.229 124.313 108.169 124.94 109.703 124.94C110.689 124.94 111.436 124.607 111.943 123.94L114.023 125.14C113.036 126.567 111.583 127.28 109.663 127.28C108.009 127.28 106.683 126.78 105.683 125.78C104.683 124.78 104.183 123.52 104.183 122C104.183 120.493 104.676 119.24 105.663 118.24C106.649 117.227 107.916 116.72 109.463 116.72C110.929 116.72 112.136 117.227 113.083 118.24C114.043 119.253 114.523 120.507 114.523 122C114.523 122.333 114.489 122.687 114.423 123.06H106.883ZM106.843 121.06H111.943C111.796 120.38 111.489 119.873 111.023 119.54C110.569 119.207 110.049 119.04 109.463 119.04C108.769 119.04 108.196 119.22 107.743 119.58C107.289 119.927 106.989 120.42 106.843 121.06ZM121.744 116.72C123.09 116.72 124.237 117.233 125.184 118.26C126.144 119.273 126.624 120.52 126.624 122C126.624 123.48 126.144 124.733 125.184 125.76C124.237 126.773 123.09 127.28 121.744 127.28C120.344 127.28 119.264 126.793 118.504 125.82V131H115.924V117H118.504V118.18C119.264 117.207 120.344 116.72 121.744 116.72ZM119.284 124.04C119.804 124.56 120.464 124.82 121.264 124.82C122.064 124.82 122.724 124.56 123.244 124.04C123.777 123.507 124.044 122.827 124.044 122C124.044 121.173 123.777 120.5 123.244 119.98C122.724 119.447 122.064 119.18 121.264 119.18C120.464 119.18 119.804 119.447 119.284 119.98C118.764 120.5 118.504 121.173 118.504 122C118.504 122.827 118.764 123.507 119.284 124.04ZM130.963 112.94C130.843 113.407 130.69 113.913 130.503 114.46C130.317 114.993 130.117 115.533 129.903 116.08C129.69 116.613 129.47 117.127 129.243 117.62H127.103C127.197 117.22 127.29 116.807 127.383 116.38C127.477 115.953 127.563 115.527 127.643 115.1C127.737 114.66 127.817 114.24 127.883 113.84C127.963 113.44 128.03 113.067 128.083 112.72H130.823L130.963 112.94ZM139.099 123.42L141.279 124.68C140.879 125.467 140.273 126.1 139.459 126.58C138.646 127.047 137.726 127.28 136.699 127.28C135.166 127.28 133.906 126.793 132.919 125.82C131.946 124.833 131.459 123.56 131.459 122C131.459 120.44 131.946 119.173 132.919 118.2C133.906 117.213 135.159 116.72 136.679 116.72C137.693 116.72 138.599 116.953 139.399 117.42C140.213 117.887 140.833 118.513 141.259 119.3L139.079 120.56C138.639 119.653 137.833 119.2 136.659 119.2C136.099 119.2 135.599 119.353 135.159 119.66C134.733 119.953 134.419 120.347 134.219 120.84H137.619V123.16H134.219C134.419 123.653 134.733 124.053 135.159 124.36C135.599 124.653 136.099 124.8 136.659 124.8C137.259 124.8 137.773 124.673 138.199 124.42C138.626 124.167 138.926 123.833 139.099 123.42ZM148.141 116.72C149.488 116.72 150.635 117.233 151.581 118.26C152.541 119.273 153.021 120.52 153.021 122C153.021 123.48 152.541 124.733 151.581 125.76C150.635 126.773 149.488 127.28 148.141 127.28C146.741 127.28 145.661 126.793 144.901 125.82V131H142.321V117H144.901V118.18C145.661 117.207 146.741 116.72 148.141 116.72ZM145.681 124.04C146.201 124.56 146.861 124.82 147.661 124.82C148.461 124.82 149.121 124.56 149.641 124.04C150.175 123.507 150.441 122.827 150.441 122C150.441 121.173 150.175 120.5 149.641 119.98C149.121 119.447 148.461 119.18 147.661 119.18C146.861 119.18 146.201 119.447 145.681 119.98C145.161 120.5 144.901 121.173 144.901 122C144.901 122.827 145.161 123.507 145.681 124.04Z" fill="#2B2B2B"/>
</svg>
