<svg width="240" height="269" viewBox="0 0 240 269" fill="none" xmlns="http://www.w3.org/2000/svg">
<rect x="7.5" y="46.5" width="231" height="217" rx="18.5" fill="#2B2B2B" stroke="#2B2B2B" stroke-width="3"/>
<rect x="1.5" y="50.5" width="231" height="217" rx="18.5" fill="white" stroke="#2B2B2B" stroke-width="3"/>
<path d="M30.33 5.95L35.85 4H39.45V25H35.31V8.38L31.35 9.49L30.33 5.95ZM53.5416 11.65H55.7016C57.7416 11.65 59.4416 12.26 60.8016 13.48C62.1816 14.68 62.8716 16.36 62.8716 18.52C62.8716 20.68 62.1416 22.37 60.6816 23.59C59.2616 24.81 57.4916 25.42 55.3716 25.42C53.6516 25.42 52.1416 25.04 50.8416 24.28C49.5616 23.5 48.6316 22.38 48.0516 20.92L51.5916 18.85C52.0916 20.53 53.3516 21.37 55.3716 21.37C56.4316 21.37 57.2516 21.12 57.8316 20.62C58.4316 20.1 58.7316 19.4 58.7316 18.52C58.7316 17.66 58.4416 16.97 57.8616 16.45C57.2816 15.93 56.4916 15.67 55.4916 15.67H49.1316L49.9716 4H61.8816V7.87H53.8116L53.5416 11.65ZM71.9355 25.42C69.3155 25.42 67.2555 24.43 65.7555 22.45C64.2755 20.43 63.5355 17.78 63.5355 14.5C63.5355 11.22 64.2755 8.58 65.7555 6.58C67.2555 4.58 69.3155 3.58 71.9355 3.58C74.5955 3.58 76.6555 4.58 78.1155 6.58C79.5955 8.58 80.3355 11.22 80.3355 14.5C80.3355 17.78 79.5955 20.43 78.1155 22.45C76.6555 24.43 74.5955 25.42 71.9355 25.42ZM76.2255 14.5C76.2255 12.26 75.8555 10.55 75.1155 9.37C74.3955 8.19 73.3355 7.6 71.9355 7.6C70.5355 7.6 69.4755 8.19 68.7555 9.37C68.0355 10.55 67.6755 12.26 67.6755 14.5C67.6755 16.74 68.0355 18.45 68.7555 19.63C69.4755 20.79 70.5355 21.37 71.9355 21.37C73.3355 21.37 74.3955 20.78 75.1155 19.6C75.8555 18.42 76.2255 16.72 76.2255 14.5ZM89.932 25.42C87.312 25.42 85.252 24.43 83.752 22.45C82.272 20.43 81.532 17.78 81.532 14.5C81.532 11.22 82.272 8.58 83.752 6.58C85.252 4.58 87.312 3.58 89.932 3.58C92.592 3.58 94.652 4.58 96.112 6.58C97.592 8.58 98.332 11.22 98.332 14.5C98.332 17.78 97.592 20.43 96.112 22.45C94.652 24.43 92.592 25.42 89.932 25.42ZM94.222 14.5C94.222 12.26 93.852 10.55 93.112 9.37C92.392 8.19 91.332 7.6 89.932 7.6C88.532 7.6 87.472 8.19 86.752 9.37C86.032 10.55 85.672 12.26 85.672 14.5C85.672 16.74 86.032 18.45 86.752 19.63C87.472 20.79 88.532 21.37 89.932 21.37C91.332 21.37 92.392 20.78 93.112 19.6C93.852 18.42 94.222 16.72 94.222 14.5ZM111.679 17.8H100.429V14.08H111.679V17.8ZM127.575 25H113.535V21.91L120.705 14.53C122.305 12.83 123.105 11.43 123.105 10.33C123.105 9.51 122.845 8.85 122.325 8.35C121.825 7.85 121.175 7.6 120.375 7.6C118.775 7.6 117.605 8.42 116.865 10.06L113.385 8.02C114.025 6.6 114.955 5.51 116.175 4.75C117.415 3.97 118.795 3.58 120.315 3.58C122.215 3.58 123.845 4.18 125.205 5.38C126.565 6.56 127.245 8.16 127.245 10.18C127.245 12.36 126.095 14.6 123.795 16.9L119.685 21.01H127.575V25ZM143.813 25.42C141.193 25.42 139.133 24.43 137.633 22.45C136.153 20.43 135.413 17.78 135.413 14.5C135.413 11.22 136.153 8.58 137.633 6.58C139.133 4.58 141.193 3.58 143.813 3.58C146.473 3.58 148.533 4.58 149.993 6.58C151.473 8.58 152.213 11.22 152.213 14.5C152.213 17.78 151.473 20.43 149.993 22.45C148.533 24.43 146.473 25.42 143.813 25.42ZM148.103 14.5C148.103 12.26 147.733 10.55 146.993 9.37C146.273 8.19 145.213 7.6 143.813 7.6C142.413 7.6 141.353 8.19 140.633 9.37C139.913 10.55 139.553 12.26 139.553 14.5C139.553 16.74 139.913 18.45 140.633 19.63C141.353 20.79 142.413 21.37 143.813 21.37C145.213 21.37 146.273 20.78 146.993 19.6C147.733 18.42 148.103 16.72 148.103 14.5ZM161.809 25.42C159.189 25.42 157.129 24.43 155.629 22.45C154.149 20.43 153.409 17.78 153.409 14.5C153.409 11.22 154.149 8.58 155.629 6.58C157.129 4.58 159.189 3.58 161.809 3.58C164.469 3.58 166.529 4.58 167.989 6.58C169.469 8.58 170.209 11.22 170.209 14.5C170.209 17.78 169.469 20.43 167.989 22.45C166.529 24.43 164.469 25.42 161.809 25.42ZM166.099 14.5C166.099 12.26 165.729 10.55 164.989 9.37C164.269 8.19 163.209 7.6 161.809 7.6C160.409 7.6 159.349 8.19 158.629 9.37C157.909 10.55 157.549 12.26 157.549 14.5C157.549 16.74 157.909 18.45 158.629 19.63C159.349 20.79 160.409 21.37 161.809 21.37C163.209 21.37 164.269 20.78 164.989 19.6C165.729 18.42 166.099 16.72 166.099 14.5ZM179.805 25.42C177.185 25.42 175.125 24.43 173.625 22.45C172.145 20.43 171.405 17.78 171.405 14.5C171.405 11.22 172.145 8.58 173.625 6.58C175.125 4.58 177.185 3.58 179.805 3.58C182.465 3.58 184.525 4.58 185.985 6.58C187.465 8.58 188.205 11.22 188.205 14.5C188.205 17.78 187.465 20.43 185.985 22.45C184.525 24.43 182.465 25.42 179.805 25.42ZM184.095 14.5C184.095 12.26 183.725 10.55 182.985 9.37C182.265 8.19 181.205 7.6 179.805 7.6C178.405 7.6 177.345 8.19 176.625 9.37C175.905 10.55 175.545 12.26 175.545 14.5C175.545 16.74 175.905 18.45 176.625 19.63C177.345 20.79 178.405 21.37 179.805 21.37C181.205 21.37 182.265 20.78 182.985 19.6C183.725 18.42 184.095 16.72 184.095 14.5ZM210.672 19.12C210.672 20.84 210.122 22.26 209.022 23.38C207.922 24.48 206.452 25.14 204.612 25.36V28H202.602V25.39C200.922 25.27 199.482 24.8 198.282 23.98C197.082 23.16 196.222 22.05 195.702 20.65L199.272 18.58C199.912 20.2 201.022 21.11 202.602 21.31V16.12H202.572L202.512 16.09C201.292 15.65 200.202 15.13 199.242 14.53C197.622 13.51 196.752 11.89 196.632 9.67C196.632 7.89 197.202 6.48 198.342 5.44C199.542 4.36 200.962 3.75 202.602 3.61V1H204.612V3.67C207.332 4.01 209.252 5.42 210.372 7.9L206.892 9.94C206.412 8.74 205.652 8.01 204.612 7.75V12.76C206.552 13.54 207.802 14.13 208.362 14.53C209.902 15.65 210.672 17.18 210.672 19.12ZM200.742 9.7C200.742 10.14 200.882 10.53 201.162 10.87C201.442 11.19 201.922 11.52 202.602 11.86V7.66C201.362 7.9 200.742 8.58 200.742 9.7ZM204.612 16.93V21.25C205.892 20.99 206.532 20.29 206.532 19.15C206.532 18.25 205.892 17.51 204.612 16.93Z" fill="#2B2B2B"/>
<rect x="20" y="166" width="194" height="33" rx="16.5" fill="#EFEFEF"/>
<path d="M31.3 175H34.06V189H31.3V175ZM42.6916 179H45.2716V189H42.6916V185.2H38.7116V189H36.1316V179H38.7116V182.78H42.6916V179ZM55.1155 179V181.48H51.9955V189H49.4155V181.48H46.2555V179H55.1155ZM57.8827 185.06C58.2293 186.313 59.1693 186.94 60.7027 186.94C61.6893 186.94 62.436 186.607 62.9427 185.94L65.0227 187.14C64.036 188.567 62.5827 189.28 60.6627 189.28C59.0093 189.28 57.6827 188.78 56.6827 187.78C55.6827 186.78 55.1827 185.52 55.1827 184C55.1827 182.493 55.676 181.24 56.6627 180.24C57.6493 179.227 58.916 178.72 60.4627 178.72C61.9293 178.72 63.136 179.227 64.0827 180.24C65.0427 181.253 65.5227 182.507 65.5227 184C65.5227 184.333 65.4893 184.687 65.4227 185.06H57.8827ZM57.8427 183.06H62.9427C62.796 182.38 62.4893 181.873 62.0227 181.54C61.5693 181.207 61.0493 181.04 60.4627 181.04C59.7693 181.04 59.196 181.22 58.7427 181.58C58.2893 181.927 57.9893 182.42 57.8427 183.06ZM72.7438 178.72C74.0904 178.72 75.2371 179.233 76.1838 180.26C77.1438 181.273 77.6238 182.52 77.6238 184C77.6238 185.48 77.1438 186.733 76.1838 187.76C75.2371 188.773 74.0904 189.28 72.7438 189.28C71.3438 189.28 70.2638 188.793 69.5038 187.82V193H66.9238V179H69.5038V180.18C70.2638 179.207 71.3438 178.72 72.7438 178.72ZM70.2838 186.04C70.8038 186.56 71.4638 186.82 72.2638 186.82C73.0638 186.82 73.7238 186.56 74.2438 186.04C74.7771 185.507 75.0438 184.827 75.0438 184C75.0438 183.173 74.7771 182.5 74.2438 181.98C73.7238 181.447 73.0638 181.18 72.2638 181.18C71.4638 181.18 70.8038 181.447 70.2838 181.98C69.7638 182.5 69.5038 183.173 69.5038 184C69.5038 184.827 69.7638 185.507 70.2838 186.04ZM81.9633 174.94C81.8433 175.407 81.6899 175.913 81.5033 176.46C81.3166 176.993 81.1166 177.533 80.9033 178.08C80.6899 178.613 80.4699 179.127 80.2433 179.62H78.1033C78.1966 179.22 78.2899 178.807 78.3833 178.38C78.4766 177.953 78.5633 177.527 78.6433 177.1C78.7366 176.66 78.8166 176.24 78.8833 175.84C78.9633 175.44 79.0299 175.067 79.0833 174.72H81.8233L81.9633 174.94ZM90.0992 185.42L92.2792 186.68C91.8792 187.467 91.2726 188.1 90.4592 188.58C89.6459 189.047 88.7259 189.28 87.6992 189.28C86.1659 189.28 84.9059 188.793 83.9192 187.82C82.9459 186.833 82.4592 185.56 82.4592 184C82.4592 182.44 82.9459 181.173 83.9192 180.2C84.9059 179.213 86.1592 178.72 87.6792 178.72C88.6926 178.72 89.5992 178.953 90.3992 179.42C91.2126 179.887 91.8326 180.513 92.2592 181.3L90.0792 182.56C89.6392 181.653 88.8326 181.2 87.6592 181.2C87.0992 181.2 86.5992 181.353 86.1592 181.66C85.7326 181.953 85.4192 182.347 85.2192 182.84H88.6192V185.16H85.2192C85.4192 185.653 85.7326 186.053 86.1592 186.36C86.5992 186.653 87.0992 186.8 87.6592 186.8C88.2592 186.8 88.7726 186.673 89.1992 186.42C89.6259 186.167 89.9259 185.833 90.0992 185.42ZM99.1414 178.72C100.488 178.72 101.635 179.233 102.581 180.26C103.541 181.273 104.021 182.52 104.021 184C104.021 185.48 103.541 186.733 102.581 187.76C101.635 188.773 100.488 189.28 99.1414 189.28C97.7414 189.28 96.6614 188.793 95.9014 187.82V193H93.3214V179H95.9014V180.18C96.6614 179.207 97.7414 178.72 99.1414 178.72ZM96.6814 186.04C97.2014 186.56 97.8614 186.82 98.6614 186.82C99.4614 186.82 100.121 186.56 100.641 186.04C101.175 185.507 101.441 184.827 101.441 184C101.441 183.173 101.175 182.5 100.641 181.98C100.121 181.447 99.4614 181.18 98.6614 181.18C97.8614 181.18 97.2014 181.447 96.6814 181.98C96.1614 182.5 95.9014 183.173 95.9014 184C95.9014 184.827 96.1614 185.507 96.6814 186.04ZM113.93 180.78V183.2H110.63V186.5H108.21V183.2H104.93V180.78H108.21V177.5H110.63V180.78H113.93ZM117.299 185.06C117.646 186.313 118.586 186.94 120.119 186.94C121.106 186.94 121.852 186.607 122.359 185.94L124.439 187.14C123.452 188.567 121.999 189.28 120.079 189.28C118.426 189.28 117.099 188.78 116.099 187.78C115.099 186.78 114.599 185.52 114.599 184C114.599 182.493 115.092 181.24 116.079 180.24C117.066 179.227 118.332 178.72 119.879 178.72C121.346 178.72 122.552 179.227 123.499 180.24C124.459 181.253 124.939 182.507 124.939 184C124.939 184.333 124.906 184.687 124.839 185.06H117.299ZM117.259 183.06H122.359C122.212 182.38 121.906 181.873 121.439 181.54C120.986 181.207 120.466 181.04 119.879 181.04C119.186 181.04 118.612 181.22 118.159 181.58C117.706 181.927 117.406 182.42 117.259 183.06ZM135.56 189H132.56L128.92 184.46V189H126.34V179H128.92V183.4L132.36 179H135.44L131.42 183.94L135.56 189ZM140.485 189.28C138.979 189.28 137.719 188.773 136.705 187.76C135.705 186.747 135.205 185.493 135.205 184C135.205 182.507 135.705 181.253 136.705 180.24C137.719 179.227 138.979 178.72 140.485 178.72C141.459 178.72 142.345 178.953 143.145 179.42C143.945 179.887 144.552 180.513 144.965 181.3L142.745 182.6C142.545 182.187 142.239 181.86 141.825 181.62C141.425 181.38 140.972 181.26 140.465 181.26C139.692 181.26 139.052 181.52 138.545 182.04C138.039 182.547 137.785 183.2 137.785 184C137.785 184.787 138.039 185.44 138.545 185.96C139.052 186.467 139.692 186.72 140.465 186.72C140.985 186.72 141.445 186.607 141.845 186.38C142.259 186.14 142.565 185.813 142.765 185.4L145.005 186.68C144.565 187.467 143.945 188.1 143.145 188.58C142.345 189.047 141.459 189.28 140.485 189.28ZM153.791 179V181.48H150.671V189H148.091V181.48H144.931V179H153.791ZM156.558 185.06C156.905 186.313 157.845 186.94 159.378 186.94C160.365 186.94 161.112 186.607 161.618 185.94L163.698 187.14C162.712 188.567 161.258 189.28 159.338 189.28C157.685 189.28 156.358 188.78 155.358 187.78C154.358 186.78 153.858 185.52 153.858 184C153.858 182.493 154.352 181.24 155.338 180.24C156.325 179.227 157.592 178.72 159.138 178.72C160.605 178.72 161.812 179.227 162.758 180.24C163.718 181.253 164.198 182.507 164.198 184C164.198 184.333 164.165 184.687 164.098 185.06H156.558ZM156.518 183.06H161.618C161.472 182.38 161.165 181.873 160.698 181.54C160.245 181.207 159.725 181.04 159.138 181.04C158.445 181.04 157.872 181.22 157.418 181.58C156.965 181.927 156.665 182.42 156.518 183.06ZM171.42 178.72C172.766 178.72 173.913 179.233 174.86 180.26C175.82 181.273 176.3 182.52 176.3 184C176.3 185.48 175.82 186.733 174.86 187.76C173.913 188.773 172.766 189.28 171.42 189.28C170.02 189.28 168.94 188.793 168.18 187.82V193H165.6V179H168.18V180.18C168.94 179.207 170.02 178.72 171.42 178.72ZM168.96 186.04C169.48 186.56 170.14 186.82 170.94 186.82C171.74 186.82 172.4 186.56 172.92 186.04C173.453 185.507 173.72 184.827 173.72 184C173.72 183.173 173.453 182.5 172.92 181.98C172.4 181.447 171.74 181.18 170.94 181.18C170.14 181.18 169.48 181.447 168.96 181.98C168.44 182.5 168.18 183.173 168.18 184C168.18 184.827 168.44 185.507 168.96 186.04ZM180.639 174.94C180.519 175.407 180.366 175.913 180.179 176.46C179.992 176.993 179.792 177.533 179.579 178.08C179.366 178.613 179.146 179.127 178.919 179.62H176.779C176.872 179.22 176.966 178.807 177.059 178.38C177.152 177.953 177.239 177.527 177.319 177.1C177.412 176.66 177.492 176.24 177.559 175.84C177.639 175.44 177.706 175.067 177.759 174.72H180.499L180.639 174.94ZM188.775 185.42L190.955 186.68C190.555 187.467 189.948 188.1 189.135 188.58C188.322 189.047 187.402 189.28 186.375 189.28C184.842 189.28 183.582 188.793 182.595 187.82C181.622 186.833 181.135 185.56 181.135 184C181.135 182.44 181.622 181.173 182.595 180.2C183.582 179.213 184.835 178.72 186.355 178.72C187.368 178.72 188.275 178.953 189.075 179.42C189.888 179.887 190.508 180.513 190.935 181.3L188.755 182.56C188.315 181.653 187.508 181.2 186.335 181.2C185.775 181.2 185.275 181.353 184.835 181.66C184.408 181.953 184.095 182.347 183.895 182.84H187.295V185.16H183.895C184.095 185.653 184.408 186.053 184.835 186.36C185.275 186.653 185.775 186.8 186.335 186.8C186.935 186.8 187.448 186.673 187.875 186.42C188.302 186.167 188.602 185.833 188.775 185.42ZM197.817 178.72C199.164 178.72 200.311 179.233 201.257 180.26C202.217 181.273 202.697 182.52 202.697 184C202.697 185.48 202.217 186.733 201.257 187.76C200.311 188.773 199.164 189.28 197.817 189.28C196.417 189.28 195.337 188.793 194.577 187.82V193H191.997V179H194.577V180.18C195.337 179.207 196.417 178.72 197.817 178.72ZM195.357 186.04C195.877 186.56 196.537 186.82 197.337 186.82C198.137 186.82 198.797 186.56 199.317 186.04C199.851 185.507 200.117 184.827 200.117 184C200.117 183.173 199.851 182.5 199.317 181.98C198.797 181.447 198.137 181.18 197.337 181.18C196.537 181.18 195.877 181.447 195.357 181.98C194.837 182.5 194.577 183.173 194.577 184C194.577 184.827 194.837 185.507 195.357 186.04Z" fill="#2B2B2B"/>
</svg>
