<svg width="240" height="332" viewBox="0 0 240 332" fill="none" xmlns="http://www.w3.org/2000/svg">
<rect x="7.5" y="46.5" width="231" height="280" rx="18.5" fill="#2B2B2B" stroke="#2B2B2B" stroke-width="3"/>
<rect x="1.5" y="50.5" width="231" height="280" rx="18.5" fill="white" stroke="#2B2B2B" stroke-width="3"/>
<path d="M40.85 25H26.81V21.91L33.98 14.53C35.58 12.83 36.38 11.43 36.38 10.33C36.38 9.51 36.12 8.85 35.6 8.35C35.1 7.85 34.45 7.6 33.65 7.6C32.05 7.6 30.88 8.42 30.14 10.06L26.66 8.02C27.3 6.6 28.23 5.51 29.45 4.75C30.69 3.97 32.07 3.58 33.59 3.58C35.49 3.58 37.12 4.18 38.48 5.38C39.84 6.56 40.52 8.16 40.52 10.18C40.52 12.36 39.37 14.6 37.07 16.9L32.96 21.01H40.85V25ZM53.8775 11.65H56.0375C58.0775 11.65 59.7775 12.26 61.1375 13.48C62.5175 14.68 63.2075 16.36 63.2075 18.52C63.2075 20.68 62.4775 22.37 61.0175 23.59C59.5975 24.81 57.8275 25.42 55.7075 25.42C53.9875 25.42 52.4775 25.04 51.1775 24.28C49.8975 23.5 48.9675 22.38 48.3875 20.92L51.9275 18.85C52.4275 20.53 53.6875 21.37 55.7075 21.37C56.7675 21.37 57.5875 21.12 58.1675 20.62C58.7675 20.1 59.0675 19.4 59.0675 18.52C59.0675 17.66 58.7775 16.97 58.1975 16.45C57.6175 15.93 56.8275 15.67 55.8275 15.67H49.4675L50.3075 4H62.2175V7.87H54.1475L53.8775 11.65ZM72.2715 25.42C69.6515 25.42 67.5915 24.43 66.0915 22.45C64.6115 20.43 63.8715 17.78 63.8715 14.5C63.8715 11.22 64.6115 8.58 66.0915 6.58C67.5915 4.58 69.6515 3.58 72.2715 3.58C74.9315 3.58 76.9915 4.58 78.4515 6.58C79.9315 8.58 80.6715 11.22 80.6715 14.5C80.6715 17.78 79.9315 20.43 78.4515 22.45C76.9915 24.43 74.9315 25.42 72.2715 25.42ZM76.5615 14.5C76.5615 12.26 76.1915 10.55 75.4515 9.37C74.7315 8.19 73.6715 7.6 72.2715 7.6C70.8715 7.6 69.8115 8.19 69.0915 9.37C68.3715 10.55 68.0115 12.26 68.0115 14.5C68.0115 16.74 68.3715 18.45 69.0915 19.63C69.8115 20.79 70.8715 21.37 72.2715 21.37C73.6715 21.37 74.7315 20.78 75.4515 19.6C76.1915 18.42 76.5615 16.72 76.5615 14.5ZM90.268 25.42C87.648 25.42 85.588 24.43 84.088 22.45C82.608 20.43 81.868 17.78 81.868 14.5C81.868 11.22 82.608 8.58 84.088 6.58C85.588 4.58 87.648 3.58 90.268 3.58C92.928 3.58 94.988 4.58 96.448 6.58C97.928 8.58 98.668 11.22 98.668 14.5C98.668 17.78 97.928 20.43 96.448 22.45C94.988 24.43 92.928 25.42 90.268 25.42ZM94.558 14.5C94.558 12.26 94.188 10.55 93.448 9.37C92.728 8.19 91.668 7.6 90.268 7.6C88.868 7.6 87.808 8.19 87.088 9.37C86.368 10.55 86.008 12.26 86.008 14.5C86.008 16.74 86.368 18.45 87.088 19.63C87.808 20.79 88.868 21.37 90.268 21.37C91.668 21.37 92.728 20.78 93.448 19.6C94.188 18.42 94.558 16.72 94.558 14.5ZM112.014 17.8H100.764V14.08H112.014V17.8ZM119.301 11.65H121.461C123.501 11.65 125.201 12.26 126.561 13.48C127.941 14.68 128.631 16.36 128.631 18.52C128.631 20.68 127.901 22.37 126.441 23.59C125.021 24.81 123.251 25.42 121.131 25.42C119.411 25.42 117.901 25.04 116.601 24.28C115.321 23.5 114.391 22.38 113.811 20.92L117.351 18.85C117.851 20.53 119.111 21.37 121.131 21.37C122.191 21.37 123.011 21.12 123.591 20.62C124.191 20.1 124.491 19.4 124.491 18.52C124.491 17.66 124.201 16.97 123.621 16.45C123.041 15.93 122.251 15.67 121.251 15.67H114.891L115.731 4H127.641V7.87H119.571L119.301 11.65ZM144.646 25.42C142.026 25.42 139.966 24.43 138.466 22.45C136.986 20.43 136.246 17.78 136.246 14.5C136.246 11.22 136.986 8.58 138.466 6.58C139.966 4.58 142.026 3.58 144.646 3.58C147.306 3.58 149.366 4.58 150.826 6.58C152.306 8.58 153.046 11.22 153.046 14.5C153.046 17.78 152.306 20.43 150.826 22.45C149.366 24.43 147.306 25.42 144.646 25.42ZM148.936 14.5C148.936 12.26 148.566 10.55 147.826 9.37C147.106 8.19 146.046 7.6 144.646 7.6C143.246 7.6 142.186 8.19 141.466 9.37C140.746 10.55 140.386 12.26 140.386 14.5C140.386 16.74 140.746 18.45 141.466 19.63C142.186 20.79 143.246 21.37 144.646 21.37C146.046 21.37 147.106 20.78 147.826 19.6C148.566 18.42 148.936 16.72 148.936 14.5ZM162.643 25.42C160.023 25.42 157.963 24.43 156.463 22.45C154.983 20.43 154.243 17.78 154.243 14.5C154.243 11.22 154.983 8.58 156.463 6.58C157.963 4.58 160.023 3.58 162.643 3.58C165.303 3.58 167.363 4.58 168.823 6.58C170.303 8.58 171.043 11.22 171.043 14.5C171.043 17.78 170.303 20.43 168.823 22.45C167.363 24.43 165.303 25.42 162.643 25.42ZM166.933 14.5C166.933 12.26 166.563 10.55 165.823 9.37C165.103 8.19 164.043 7.6 162.643 7.6C161.243 7.6 160.183 8.19 159.463 9.37C158.743 10.55 158.383 12.26 158.383 14.5C158.383 16.74 158.743 18.45 159.463 19.63C160.183 20.79 161.243 21.37 162.643 21.37C164.043 21.37 165.103 20.78 165.823 19.6C166.563 18.42 166.933 16.72 166.933 14.5ZM180.639 25.42C178.019 25.42 175.959 24.43 174.459 22.45C172.979 20.43 172.239 17.78 172.239 14.5C172.239 11.22 172.979 8.58 174.459 6.58C175.959 4.58 178.019 3.58 180.639 3.58C183.299 3.58 185.359 4.58 186.819 6.58C188.299 8.58 189.039 11.22 189.039 14.5C189.039 17.78 188.299 20.43 186.819 22.45C185.359 24.43 183.299 25.42 180.639 25.42ZM184.929 14.5C184.929 12.26 184.559 10.55 183.819 9.37C183.099 8.19 182.039 7.6 180.639 7.6C179.239 7.6 178.179 8.19 177.459 9.37C176.739 10.55 176.379 12.26 176.379 14.5C176.379 16.74 176.739 18.45 177.459 19.63C178.179 20.79 179.239 21.37 180.639 21.37C182.039 21.37 183.099 20.78 183.819 19.6C184.559 18.42 184.929 16.72 184.929 14.5ZM211.506 19.12C211.506 20.84 210.956 22.26 209.856 23.38C208.756 24.48 207.286 25.14 205.446 25.36V28H203.436V25.39C201.756 25.27 200.316 24.8 199.116 23.98C197.916 23.16 197.056 22.05 196.536 20.65L200.106 18.58C200.746 20.2 201.856 21.11 203.436 21.31V16.12H203.406L203.346 16.09C202.126 15.65 201.036 15.13 200.076 14.53C198.456 13.51 197.586 11.89 197.466 9.67C197.466 7.89 198.036 6.48 199.176 5.44C200.376 4.36 201.796 3.75 203.436 3.61V1H205.446V3.67C208.166 4.01 210.086 5.42 211.206 7.9L207.726 9.94C207.246 8.74 206.486 8.01 205.446 7.75V12.76C207.386 13.54 208.636 14.13 209.196 14.53C210.736 15.65 211.506 17.18 211.506 19.12ZM201.576 9.7C201.576 10.14 201.716 10.53 201.996 10.87C202.276 11.19 202.756 11.52 203.436 11.86V7.66C202.196 7.9 201.576 8.58 201.576 9.7ZM205.446 16.93V21.25C206.726 20.99 207.366 20.29 207.366 19.15C207.366 18.25 206.726 17.51 205.446 16.93Z" fill="#2B2B2B"/>
<rect x="11" y="229" width="212" height="57" rx="28.5" fill="#EFEFEF"/>
<path d="M26.5238 238H29.2838V252H26.5238V238ZM37.9154 242H40.4954V252H37.9154V248.2H33.9354V252H31.3554V242H33.9354V245.78H37.9154V242ZM50.3393 242V244.48H47.2193V252H44.6393V244.48H41.4793V242H50.3393ZM53.1065 248.06C53.4532 249.313 54.3932 249.94 55.9265 249.94C56.9132 249.94 57.6598 249.607 58.1665 248.94L60.2465 250.14C59.2598 251.567 57.8065 252.28 55.8865 252.28C54.2332 252.28 52.9065 251.78 51.9065 250.78C50.9065 249.78 50.4065 248.52 50.4065 247C50.4065 245.493 50.8998 244.24 51.8865 243.24C52.8732 242.227 54.1398 241.72 55.6865 241.72C57.1532 241.72 58.3598 242.227 59.3065 243.24C60.2665 244.253 60.7465 245.507 60.7465 247C60.7465 247.333 60.7132 247.687 60.6465 248.06H53.1065ZM53.0665 246.06H58.1665C58.0198 245.38 57.7132 244.873 57.2465 244.54C56.7932 244.207 56.2732 244.04 55.6865 244.04C54.9932 244.04 54.4198 244.22 53.9665 244.58C53.5132 244.927 53.2132 245.42 53.0665 246.06ZM67.9676 241.72C69.3142 241.72 70.4609 242.233 71.4076 243.26C72.3676 244.273 72.8476 245.52 72.8476 247C72.8476 248.48 72.3676 249.733 71.4076 250.76C70.4609 251.773 69.3142 252.28 67.9676 252.28C66.5676 252.28 65.4876 251.793 64.7276 250.82V256H62.1476V242H64.7276V243.18C65.4876 242.207 66.5676 241.72 67.9676 241.72ZM65.5076 249.04C66.0276 249.56 66.6876 249.82 67.4876 249.82C68.2876 249.82 68.9476 249.56 69.4676 249.04C70.0009 248.507 70.2676 247.827 70.2676 247C70.2676 246.173 70.0009 245.5 69.4676 244.98C68.9476 244.447 68.2876 244.18 67.4876 244.18C66.6876 244.18 66.0276 244.447 65.5076 244.98C64.9876 245.5 64.7276 246.173 64.7276 247C64.7276 247.827 64.9876 248.507 65.5076 249.04ZM77.1871 237.94C77.0671 238.407 76.9138 238.913 76.7271 239.46C76.5404 239.993 76.3404 240.533 76.1271 241.08C75.9138 241.613 75.6938 242.127 75.4671 242.62H73.3271C73.4204 242.22 73.5138 241.807 73.6071 241.38C73.7004 240.953 73.7871 240.527 73.8671 240.1C73.9604 239.66 74.0404 239.24 74.1071 238.84C74.1871 238.44 74.2538 238.067 74.3071 237.72H77.0471L77.1871 237.94ZM85.323 248.42L87.503 249.68C87.103 250.467 86.4964 251.1 85.683 251.58C84.8697 252.047 83.9497 252.28 82.923 252.28C81.3897 252.28 80.1297 251.793 79.143 250.82C78.1697 249.833 77.683 248.56 77.683 247C77.683 245.44 78.1697 244.173 79.143 243.2C80.1297 242.213 81.383 241.72 82.903 241.72C83.9164 241.72 84.823 241.953 85.623 242.42C86.4364 242.887 87.0564 243.513 87.483 244.3L85.303 245.56C84.863 244.653 84.0564 244.2 82.883 244.2C82.323 244.2 81.823 244.353 81.383 244.66C80.9564 244.953 80.643 245.347 80.443 245.84H83.843V248.16H80.443C80.643 248.653 80.9564 249.053 81.383 249.36C81.823 249.653 82.323 249.8 82.883 249.8C83.483 249.8 83.9964 249.673 84.423 249.42C84.8497 249.167 85.1497 248.833 85.323 248.42ZM94.3652 241.72C95.7119 241.72 96.8586 242.233 97.8052 243.26C98.7652 244.273 99.2452 245.52 99.2452 247C99.2452 248.48 98.7652 249.733 97.8052 250.76C96.8586 251.773 95.7119 252.28 94.3652 252.28C92.9652 252.28 91.8852 251.793 91.1252 250.82V256H88.5452V242H91.1252V243.18C91.8852 242.207 92.9652 241.72 94.3652 241.72ZM91.9052 249.04C92.4252 249.56 93.0852 249.82 93.8852 249.82C94.6852 249.82 95.3452 249.56 95.8652 249.04C96.3986 248.507 96.6652 247.827 96.6652 247C96.6652 246.173 96.3986 245.5 95.8652 244.98C95.3452 244.447 94.6852 244.18 93.8852 244.18C93.0852 244.18 92.4252 244.447 91.9052 244.98C91.3852 245.5 91.1252 246.173 91.1252 247C91.1252 247.827 91.3852 248.507 91.9052 249.04ZM114.145 243.78V246.2H110.845V249.5H108.425V246.2H105.145V243.78H108.425V240.5H110.845V243.78H114.145ZM122.739 248.06C123.085 249.313 124.025 249.94 125.559 249.94C126.545 249.94 127.292 249.607 127.799 248.94L129.879 250.14C128.892 251.567 127.439 252.28 125.519 252.28C123.865 252.28 122.539 251.78 121.539 250.78C120.539 249.78 120.039 248.52 120.039 247C120.039 245.493 120.532 244.24 121.519 243.24C122.505 242.227 123.772 241.72 125.319 241.72C126.785 241.72 127.992 242.227 128.939 243.24C129.899 244.253 130.379 245.507 130.379 247C130.379 247.333 130.345 247.687 130.279 248.06H122.739ZM122.699 246.06H127.799C127.652 245.38 127.345 244.873 126.879 244.54C126.425 244.207 125.905 244.04 125.319 244.04C124.625 244.04 124.052 244.22 123.599 244.58C123.145 244.927 122.845 245.42 122.699 246.06ZM141 252H138L134.36 247.46V252H131.78V242H134.36V246.4L137.8 242H140.88L136.86 246.94L141 252ZM145.925 252.28C144.418 252.28 143.158 251.773 142.145 250.76C141.145 249.747 140.645 248.493 140.645 247C140.645 245.507 141.145 244.253 142.145 243.24C143.158 242.227 144.418 241.72 145.925 241.72C146.898 241.72 147.785 241.953 148.585 242.42C149.385 242.887 149.991 243.513 150.405 244.3L148.185 245.6C147.985 245.187 147.678 244.86 147.265 244.62C146.865 244.38 146.411 244.26 145.905 244.26C145.131 244.26 144.491 244.52 143.985 245.04C143.478 245.547 143.225 246.2 143.225 247C143.225 247.787 143.478 248.44 143.985 248.96C144.491 249.467 145.131 249.72 145.905 249.72C146.425 249.72 146.885 249.607 147.285 249.38C147.698 249.14 148.005 248.813 148.205 248.4L150.445 249.68C150.005 250.467 149.385 251.1 148.585 251.58C147.785 252.047 146.898 252.28 145.925 252.28ZM159.231 242V244.48H156.111V252H153.531V244.48H150.371V242H159.231ZM161.998 248.06C162.345 249.313 163.285 249.94 164.818 249.94C165.805 249.94 166.551 249.607 167.058 248.94L169.138 250.14C168.151 251.567 166.698 252.28 164.778 252.28C163.125 252.28 161.798 251.78 160.798 250.78C159.798 249.78 159.298 248.52 159.298 247C159.298 245.493 159.791 244.24 160.778 243.24C161.765 242.227 163.031 241.72 164.578 241.72C166.045 241.72 167.251 242.227 168.198 243.24C169.158 244.253 169.638 245.507 169.638 247C169.638 247.333 169.605 247.687 169.538 248.06H161.998ZM161.958 246.06H167.058C166.911 245.38 166.605 244.873 166.138 244.54C165.685 244.207 165.165 244.04 164.578 244.04C163.885 244.04 163.311 244.22 162.858 244.58C162.405 244.927 162.105 245.42 161.958 246.06ZM176.859 241.72C178.206 241.72 179.352 242.233 180.299 243.26C181.259 244.273 181.739 245.52 181.739 247C181.739 248.48 181.259 249.733 180.299 250.76C179.352 251.773 178.206 252.28 176.859 252.28C175.459 252.28 174.379 251.793 173.619 250.82V256H171.039V242H173.619V243.18C174.379 242.207 175.459 241.72 176.859 241.72ZM174.399 249.04C174.919 249.56 175.579 249.82 176.379 249.82C177.179 249.82 177.839 249.56 178.359 249.04C178.892 248.507 179.159 247.827 179.159 247C179.159 246.173 178.892 245.5 178.359 244.98C177.839 244.447 177.179 244.18 176.379 244.18C175.579 244.18 174.919 244.447 174.399 244.98C173.879 245.5 173.619 246.173 173.619 247C173.619 247.827 173.879 248.507 174.399 249.04ZM186.079 237.94C185.959 238.407 185.805 238.913 185.619 239.46C185.432 239.993 185.232 240.533 185.019 241.08C184.805 241.613 184.585 242.127 184.359 242.62H182.219C182.312 242.22 182.405 241.807 182.499 241.38C182.592 240.953 182.679 240.527 182.759 240.1C182.852 239.66 182.932 239.24 182.999 238.84C183.079 238.44 183.145 238.067 183.199 237.72H185.939L186.079 237.94ZM194.214 248.42L196.394 249.68C195.994 250.467 195.388 251.1 194.574 251.58C193.761 252.047 192.841 252.28 191.814 252.28C190.281 252.28 189.021 251.793 188.034 250.82C187.061 249.833 186.574 248.56 186.574 247C186.574 245.44 187.061 244.173 188.034 243.2C189.021 242.213 190.274 241.72 191.794 241.72C192.808 241.72 193.714 241.953 194.514 242.42C195.328 242.887 195.948 243.513 196.374 244.3L194.194 245.56C193.754 244.653 192.948 244.2 191.774 244.2C191.214 244.2 190.714 244.353 190.274 244.66C189.848 244.953 189.534 245.347 189.334 245.84H192.734V248.16H189.334C189.534 248.653 189.848 249.053 190.274 249.36C190.714 249.653 191.214 249.8 191.774 249.8C192.374 249.8 192.888 249.673 193.314 249.42C193.741 249.167 194.041 248.833 194.214 248.42ZM203.257 241.72C204.603 241.72 205.75 242.233 206.697 243.26C207.657 244.273 208.137 245.52 208.137 247C208.137 248.48 207.657 249.733 206.697 250.76C205.75 251.773 204.603 252.28 203.257 252.28C201.857 252.28 200.777 251.793 200.017 250.82V256H197.437V242H200.017V243.18C200.777 242.207 201.857 241.72 203.257 241.72ZM200.797 249.04C201.317 249.56 201.977 249.82 202.777 249.82C203.577 249.82 204.237 249.56 204.757 249.04C205.29 248.507 205.557 247.827 205.557 247C205.557 246.173 205.29 245.5 204.757 244.98C204.237 244.447 203.577 244.18 202.777 244.18C201.977 244.18 201.317 244.447 200.797 244.98C200.277 245.5 200.017 246.173 200.017 247C200.017 247.827 200.277 248.507 200.797 249.04ZM56.2764 267.78V270.2H52.9764V273.5H50.5564V270.2H47.2764V267.78H50.5564V264.5H52.9764V267.78H56.2764ZM73.0902 266V276H70.5902V270.16L68.0502 274.16H67.7302L65.1702 270.12V276H62.6902V266H65.2302L67.8902 270.2L70.5502 266H73.0902ZM83.5641 274.76C82.5374 275.773 81.2841 276.28 79.8041 276.28C78.3241 276.28 77.0707 275.773 76.0441 274.76C75.0307 273.733 74.5241 272.48 74.5241 271C74.5241 269.52 75.0307 268.273 76.0441 267.26C77.0707 266.233 78.3241 265.72 79.8041 265.72C81.2841 265.72 82.5374 266.233 83.5641 267.26C84.5907 268.273 85.1041 269.52 85.1041 271C85.1041 272.48 84.5907 273.733 83.5641 274.76ZM77.8641 272.98C78.3841 273.5 79.0307 273.76 79.8041 273.76C80.5774 273.76 81.2241 273.5 81.7441 272.98C82.2641 272.46 82.5241 271.8 82.5241 271C82.5241 270.2 82.2641 269.54 81.7441 269.02C81.2241 268.5 80.5774 268.24 79.8041 268.24C79.0307 268.24 78.3841 268.5 77.8641 269.02C77.3574 269.54 77.1041 270.2 77.1041 271C77.1041 271.8 77.3574 272.46 77.8641 272.98ZM95.1284 273.58H96.4484V278.68H93.9284V276H87.7284V278.68H85.2084V273.58H86.4284C87.0018 272.727 87.2884 271.547 87.2884 270.04V266H95.1284V273.58ZM89.1884 273.58H92.6084V268.32H89.8084V270.04C89.8084 271.453 89.6018 272.633 89.1884 273.58ZM99.4709 272.06C99.8176 273.313 100.758 273.94 102.291 273.94C103.278 273.94 104.024 273.607 104.531 272.94L106.611 274.14C105.624 275.567 104.171 276.28 102.251 276.28C100.598 276.28 99.2709 275.78 98.2709 274.78C97.2709 273.78 96.7709 272.52 96.7709 271C96.7709 269.493 97.2643 268.24 98.2509 267.24C99.2376 266.227 100.504 265.72 102.051 265.72C103.518 265.72 104.724 266.227 105.671 267.24C106.631 268.253 107.111 269.507 107.111 271C107.111 271.333 107.078 271.687 107.011 272.06H99.4709ZM99.4309 270.06H104.531C104.384 269.38 104.078 268.873 103.611 268.54C103.158 268.207 102.638 268.04 102.051 268.04C101.358 268.04 100.784 268.22 100.331 268.58C99.8776 268.927 99.5776 269.42 99.4309 270.06ZM116.701 266V276H114.121V268.48H111.361V271.82C111.361 274.913 109.955 276.307 107.141 276V273.58C107.675 273.713 108.081 273.627 108.361 273.32C108.641 273 108.781 272.453 108.781 271.68V266H116.701ZM127.739 265.72C129.219 265.72 130.473 266.233 131.499 267.26C132.526 268.273 133.039 269.52 133.039 271C133.039 272.48 132.526 273.733 131.499 274.76C130.473 275.773 129.219 276.28 127.739 276.28C126.486 276.28 125.393 275.9 124.459 275.14C123.526 274.38 122.926 273.4 122.659 272.2H121.219V276H118.639V266H121.219V269.78H122.679C122.946 268.593 123.546 267.62 124.479 266.86C125.413 266.1 126.499 265.72 127.739 265.72ZM125.799 272.98C126.319 273.5 126.966 273.76 127.739 273.76C128.513 273.76 129.159 273.5 129.679 272.98C130.199 272.46 130.459 271.8 130.459 271C130.459 270.2 130.199 269.54 129.679 269.02C129.159 268.5 128.513 268.24 127.739 268.24C126.966 268.24 126.319 268.5 125.799 269.02C125.293 269.54 125.039 270.2 125.039 271C125.039 271.8 125.293 272.46 125.799 272.98ZM141.65 270.88C142.584 271.333 143.05 272.093 143.05 273.16C143.05 274 142.757 274.687 142.17 275.22C141.597 275.74 140.777 276 139.71 276H134.45V266H139.31C140.364 266 141.177 266.26 141.75 266.78C142.337 267.3 142.63 267.98 142.63 268.82C142.63 269.7 142.304 270.387 141.65 270.88ZM139.07 268.12H136.87V269.92H139.07C139.804 269.92 140.17 269.62 140.17 269.02C140.17 268.42 139.804 268.12 139.07 268.12ZM139.41 273.82C140.157 273.82 140.53 273.5 140.53 272.86C140.53 272.58 140.43 272.36 140.23 272.2C140.03 272.04 139.757 271.96 139.41 271.96H136.87V273.82H139.41ZM151.865 266H154.445V276H151.865V274.82C151.092 275.793 150.005 276.28 148.605 276.28C147.272 276.28 146.125 275.773 145.165 274.76C144.218 273.733 143.745 272.48 143.745 271C143.745 269.52 144.218 268.273 145.165 267.26C146.125 266.233 147.272 265.72 148.605 265.72C150.005 265.72 151.092 266.207 151.865 267.18V266ZM147.105 273.04C147.625 273.56 148.285 273.82 149.085 273.82C149.885 273.82 150.545 273.56 151.065 273.04C151.598 272.507 151.865 271.827 151.865 271C151.865 270.173 151.598 269.5 151.065 268.98C150.545 268.447 149.885 268.18 149.085 268.18C148.285 268.18 147.625 268.447 147.105 268.98C146.585 269.5 146.325 270.173 146.325 271C146.325 271.827 146.585 272.507 147.105 273.04ZM162.945 266H165.525V276H162.945V272.2H158.965V276H156.385V266H158.965V269.78H162.945V266ZM174.049 266H176.629V276H174.049V272.2H170.069V276H167.489V266H170.069V269.78H174.049V266ZM186.613 266V276H184.093V272.88H183.193L180.893 276H177.913L180.413 272.58C179.773 272.313 179.259 271.893 178.873 271.32C178.499 270.733 178.313 270.107 178.313 269.44C178.313 268.507 178.646 267.7 179.313 267.02C179.979 266.34 180.853 266 181.933 266H186.613ZM182.133 268.3C181.759 268.3 181.446 268.413 181.193 268.64C180.953 268.853 180.833 269.147 180.833 269.52C180.833 269.88 180.953 270.167 181.193 270.38C181.446 270.593 181.759 270.7 182.133 270.7H184.093V268.3H182.133Z" fill="#2B2B2B"/>
</svg>
