<?xml version="1.0" encoding="UTF-8" standalone="no"?>
<!-- Created with Inkscape (http://www.inkscape.org/) -->

<svg
   version="1.1"
   id="svg2"
   width="2933.3333"
   height="2933.3333"
   viewBox="0 0 2933.3333 2933.3333"
   sodipodi:docname="60d82eb3-4ce0-4308-8212-a80e2a6e4e92.eps"
   xmlns:inkscape="http://www.inkscape.org/namespaces/inkscape"
   xmlns:sodipodi="http://sodipodi.sourceforge.net/DTD/sodipodi-0.dtd"
   xmlns="http://www.w3.org/2000/svg"
   xmlns:svg="http://www.w3.org/2000/svg">
  <defs
     id="defs6" />
  <sodipodi:namedview
     id="namedview4"
     pagecolor="#ffffff"
     bordercolor="#000000"
     borderopacity="0.25"
     inkscape:showpageshadow="2"
     inkscape:pageopacity="0.0"
     inkscape:pagecheckerboard="0"
     inkscape:deskcolor="#d1d1d1" />
  <g
     id="g8"
     inkscape:groupmode="layer"
     inkscape:label="ink_ext_XXXXXX"
     transform="matrix(1.3333333,0,0,-1.3333333,0,2933.3333)">
    <g
       id="g10"
       transform="scale(0.1)">
      <path
         d="M 22000,0 H 0 V 22000 H 22000 V 0"
         style="fill:transparent;fill-opacity:1;fill-rule:nonzero;stroke:none"
         id="path12" />
      <path
         d="M 18892,13386.2 C 18290.2,10367.3 16086.6,7829.1 13640.8,5754.9 12796.8,5039.2 11915,4361.4 11000,3724.8 c -915,636.6 -1796.78,1314.4 -2640.75,2030.1 -2445.86,2074.2 -4649.48,4612.4 -5251.2,7631.3 -256.37,1286.7 -168.71,2727.4 722.92,3742.7 912.36,1039.2 2428.06,1585.6 3995.69,1128.3 2002.7,-584.4 3173.34,-2684.8 3173.34,-2684.8 0,0 1170.6,2100.4 3173.3,2684.8 1567.7,457.3 3083.4,-89.1 3995.7,-1128.3 891.7,-1015.3 979.3,-2456 723,-3742.7"
         style="fill:#95d559;fill-opacity:1;fill-rule:nonzero;stroke:none"
         id="path14" />
      <path
         d="m 6701.32,17757.6 c -314.41,0 -625.88,-45.6 -925.8,-136.7 -563.7,-171.3 -1064.13,-492.4 -1447.17,-928.7 -331.8,-377.8 -545.57,-860.7 -635.41,-1435.2 -81.34,-520.1 -59.13,-1122.3 64.23,-1741.5 482.6,-2421.3 2127.99,-4794.7 5030.17,-7255.8 707.65,-600.1 1450.36,-1179 2212.66,-1724.8 762.3,545.8 1505,1124.7 2212.7,1724.8 2902.1,2461.1 4547.5,4834.5 5030.1,7255.9 123.4,619.1 145.6,1221.3 64.3,1741.5 -89.9,574.4 -303.6,1057.3 -635.4,1435.1 -383.1,436.3 -883.5,757.4 -1447.2,928.7 -598.8,182 -1244,182.3 -1865.8,0.9 -1699.4,-495.9 -2758.4,-2332.7 -2781,-2372.3 l -579.1,-934.2 -576.4,934.3 c -24.2,42.4 -1082.85,1876.7 -2780.94,2372.2 -310.34,90.5 -626.6,135.8 -939.94,135.8 z M 11000,2918.5 l -378,263 C 9692.67,3828 8787.34,4524 7931.16,5250.1 6504.23,6460.2 5384.6,7629.5 4508.28,8824.9 c -508.54,693.8 -935.13,1401.5 -1267.91,2103.5 -363.32,766.4 -626.24,1549.8 -781.43,2328.4 -155.65,781.1 -180.49,1522.9 -73.86,2204.8 129.27,826.6 448.41,1534.5 948.56,2104 545.84,621.7 1257.16,1078.8 2057.02,1321.9 845.54,256.9 1751.99,258.7 2621.35,5.1 1385.53,-404.3 2402.09,-1420.7 2987.99,-2158.8 585.9,738.1 1602.4,1754.5 2988,2158.8 869.4,253.6 1775.8,251.8 2621.3,-5.1 799.9,-243.1 1511.2,-700.2 2057.1,-1321.9 500.1,-569.5 819.3,-1277.4 948.5,-2104 106.6,-681.9 81.8,-1423.6 -73.8,-2204.7 v -0.1 c -155.2,-778.6 -418.1,-1562 -781.5,-2328.4 -332.8,-702 -759.3,-1409.7 -1267.9,-2103.5 C 16615.4,7629.5 15495.8,6460.2 14068.8,5250.1 13212.7,4524 12307.3,3828 11378,3181.5 l -378,-263"
         style="fill:#457d32;fill-opacity:1;fill-rule:nonzero;stroke:none"
         id="path16" />
    </g>
  </g>
</svg>
