<svg width="60" height="60" viewBox="0 0 60 60" fill="none" xmlns="http://www.w3.org/2000/svg">
<path fill-rule="evenodd" clip-rule="evenodd" d="M38.864 13.6453C38.5601 13.8379 38.3943 14.1557 38.3943 14.5461C38.3943 15.6757 39.9008 16.0287 40.4183 15.0204C40.6553 14.5586 40.4843 13.9207 40.0498 13.6453C39.8461 13.5162 39.7526 13.4921 39.4569 13.4921C39.1611 13.4921 39.0677 13.5162 38.864 13.6453ZM39.6705 14.1031C39.9877 14.267 40.0391 14.6692 39.7715 14.8941C39.5502 15.0803 39.332 15.0742 39.134 14.8764C38.8866 14.6291 38.9327 14.2682 39.2324 14.1057C39.4175 14.0053 39.4805 14.0049 39.6705 14.1031ZM24.2424 15.2498C23.8773 15.3354 23.4092 15.623 23.196 15.8924C23.0032 16.1361 22.8268 16.5238 22.7531 16.8656L22.7182 17.0276L23.3044 17.121C23.6268 17.1723 23.9119 17.2013 23.9378 17.1852C23.9638 17.1692 24.0006 17.0729 24.0196 16.9713C24.0601 16.7558 24.2646 16.494 24.4788 16.3833C24.5616 16.3406 24.7491 16.3056 24.8957 16.3056C25.1169 16.3056 25.1934 16.333 25.3466 16.4675C25.5676 16.6613 25.6653 16.9246 25.6187 17.2003C25.5446 17.6384 25.2478 17.8982 24.7364 17.9727L24.493 18.0081L24.4267 18.5151C24.3902 18.7939 24.3703 19.032 24.3826 19.0442C24.3948 19.0565 24.5316 19.0425 24.6865 19.0131C25.3897 18.8799 25.9063 19.3401 25.9079 20.1012C25.9094 20.8593 25.3575 21.3896 24.7183 21.2439C24.3376 21.1572 24.0245 20.8224 23.9626 20.436C23.9316 20.2416 23.9219 20.233 23.7643 20.2594C23.6731 20.2747 23.384 20.3123 23.1219 20.3431C22.8597 20.3739 22.6355 20.4087 22.6236 20.4206C22.6118 20.4325 22.63 20.5527 22.664 20.6878C22.8949 21.6042 23.6067 22.2371 24.5392 22.3553C25.6708 22.4986 26.6456 22.0049 27.1077 21.0545C27.247 20.7679 27.2616 20.6858 27.2629 20.1808C27.2641 19.6776 27.2505 19.5973 27.1224 19.3546C26.9093 18.9512 26.5579 18.6613 26.0955 18.5075C25.9939 18.4738 25.9951 18.4684 26.1216 18.3842C26.6568 18.0285 26.9225 17.6222 26.9597 17.1031C27.0372 16.021 26.1251 15.1811 24.8886 15.1961C24.6466 15.1991 24.3558 15.2232 24.2424 15.2498ZM30.0863 15.2466C29.734 15.3348 29.2712 15.6163 28.9898 15.9136C28.5149 16.4154 28.2869 17.0501 28.1844 18.1559C28.1167 18.8858 28.179 19.9003 28.3267 20.4728C28.6679 21.7956 29.6721 22.5149 30.9533 22.3542C31.9691 22.2267 32.6672 21.5011 32.8269 20.4068C32.9049 19.8718 32.8291 19.3054 32.6204 18.8643C32.4358 18.474 31.9978 18.038 31.6084 17.8567C31.3465 17.7347 31.2324 17.7141 30.8238 17.7149C30.3068 17.7158 30.0945 17.7896 29.7329 18.0935L29.5577 18.2409L29.5916 17.8439C29.6552 17.1005 29.8612 16.6373 30.2323 16.4043C30.3611 16.3234 30.468 16.3041 30.7043 16.3193C31.0691 16.3427 31.2757 16.5043 31.3783 16.8463L31.4434 17.0632L31.8242 17.0287C32.0337 17.0097 32.3212 16.9791 32.4632 16.9607L32.7212 16.9274L32.692 16.7473C32.6043 16.2078 32.1506 15.6048 31.6549 15.3691C31.403 15.2494 31.27 15.2241 30.8238 15.2108C30.5316 15.2021 30.1997 15.2182 30.0863 15.2466ZM35.2751 15.2649C34.7031 15.451 34.3475 15.7761 34.0599 16.3758C33.7482 17.0258 33.6926 17.3922 33.6926 18.8006C33.6926 20.1679 33.7543 20.6081 34.027 21.1894C34.3227 21.8195 34.9381 22.2746 35.6064 22.3574C36.8418 22.5105 37.6883 21.8821 38.0276 20.56C38.191 19.9231 38.2558 18.9223 38.1869 18.0994C38.0588 16.5706 37.6796 15.7924 36.8683 15.3933C36.5565 15.2399 36.4591 15.2188 36.0078 15.2062C35.6836 15.1972 35.4177 15.2184 35.2751 15.2649ZM36.3473 16.4705C36.4881 16.594 36.5652 16.7306 36.6547 17.0146C36.7655 17.3671 36.774 17.4913 36.774 18.774C36.774 19.9335 36.7588 20.209 36.6795 20.4963C36.5613 20.9242 36.3799 21.1685 36.1292 21.2377C35.6888 21.3592 35.3857 21.1416 35.2074 20.5758C34.984 19.8665 35.0019 17.5635 35.2363 16.8778C35.4258 16.3231 35.9573 16.1283 36.3473 16.4705ZM31.1129 18.8514C31.2096 18.9203 31.3376 19.0863 31.3974 19.2204C31.5333 19.5256 31.5779 20.1772 31.4885 20.5497C31.3279 21.2189 30.6668 21.467 30.1313 21.0589C29.85 20.8445 29.7203 20.5454 29.6932 20.0481C29.6572 19.3905 29.7958 19.034 30.1815 18.7917C30.4089 18.6488 30.8696 18.6784 31.1129 18.8514ZM19.2422 19.4681C16.9428 20.3227 15.287 21.299 14.2685 22.4006C12.4072 24.4138 12.6124 26.6354 14.8365 28.552C17.3257 30.6969 22.1554 32.2386 27.5432 32.6081L28.5128 32.6746V33.227C28.5128 33.5308 28.5341 33.7715 28.5602 33.7617C28.5863 33.752 29.3274 33.3268 30.2072 32.817C31.4328 32.1067 31.7912 31.876 31.7403 31.8301C31.6629 31.7604 28.732 30.0742 28.601 30.024C28.5227 29.9939 28.5128 30.046 28.5128 30.4877V30.9853L27.862 30.9453C23.7832 30.6944 19.9117 29.7031 17.4387 28.2765C14.7152 26.7054 13.8363 24.7565 15.0089 22.8881C15.7677 21.6789 17.3876 20.572 19.6273 19.732C20.002 19.5915 20.0125 19.5826 20.0125 19.4064C20.0125 19.2953 19.9869 19.2264 19.9461 19.2282C19.9096 19.2298 19.5928 19.3377 19.2422 19.4681ZM40.9545 19.4167C40.971 19.6081 40.971 19.6081 41.5288 19.8157C41.8356 19.9298 42.3974 20.1756 42.7773 20.3619C46.4982 22.1869 47.4729 24.7223 45.3008 26.9265C45.0524 27.1785 44.6699 27.5162 44.4506 27.6769C42.0182 29.4598 37.6355 30.6868 32.6832 30.9714L32.4707 30.9836L32.4561 31.8273L32.4414 32.6711L33.0405 32.634C36.3737 32.4276 39.9697 31.6833 42.3523 30.7065C43.8021 30.1122 44.676 29.636 45.6461 28.9119C47.3149 27.6665 48.0843 26.2613 47.9004 24.7951C47.689 23.1107 46.1929 21.5425 43.5742 20.2604C42.8041 19.8833 41.1624 19.2253 40.9918 19.2253C40.9622 19.2253 40.9454 19.3114 40.9545 19.4167ZM17.573 33.4801C17.1659 33.594 16.9523 33.7423 16.7846 34.0273C16.6534 34.2503 16.639 34.3249 16.6391 34.7792C16.6393 35.3757 16.7475 35.6395 17.0951 35.8911C17.6509 36.2935 18.8045 36.3107 19.438 35.926C19.8308 35.6876 19.9806 35.3789 19.9806 34.8084C19.9806 34.1409 19.741 33.7411 19.2156 33.5321C18.8846 33.4003 17.9621 33.3711 17.573 33.4801ZM52.6854 40.0081V46.3517H54.2792H55.873V40.0081V33.6644H54.2792H52.6854V40.0081ZM3.96826 34.4482C3.96826 34.4705 4.83789 37.152 5.90074 40.407L7.83323 46.3252L9.74111 46.3391L11.649 46.353L13.5826 40.4466C14.6461 37.1982 15.5263 34.5105 15.5387 34.4739C15.5565 34.4217 15.1771 34.4076 13.7577 34.4076H11.9542L11.0681 37.6664C10.244 40.6974 9.91659 42.0486 9.83191 42.7683C9.81305 42.929 9.78292 43.0604 9.76502 43.0604C9.74717 43.0603 9.69064 42.8036 9.63943 42.4897C9.50624 41.673 9.37039 41.1266 8.42522 37.6069C7.96084 35.8775 7.58088 34.4502 7.58088 34.4351C7.58088 34.4199 6.76804 34.4076 5.77457 34.4076C4.7811 34.4076 3.96826 34.4258 3.96826 34.4482ZM24.8736 36.9895C22.7768 37.3216 21.7948 38.4098 22.0297 40.1408C22.1928 41.3422 22.8611 41.9809 24.7674 42.7573C26.01 43.2634 26.2283 43.4071 26.2283 43.7194C26.2283 44.0951 25.9545 44.2063 25.0596 44.1942C24.3792 44.1849 23.6134 44.0338 22.7769 43.7437C22.4399 43.6268 22.1219 43.5179 22.0702 43.5017C21.9819 43.474 21.9771 43.5481 21.9905 44.7378L22.0048 46.0034L22.2704 46.1038C22.8935 46.3394 23.7106 46.4632 24.8516 46.495C26.0738 46.5292 26.7519 46.4535 27.3965 46.2111C28.3817 45.8407 29.0103 45.1527 29.1986 44.239C29.2806 43.8407 29.2691 43.0937 29.1747 42.6935C28.9533 41.7549 28.3748 41.2229 26.8857 40.5881C25.0785 39.8177 25.0596 39.8063 25.0596 39.481C25.0596 39.2247 25.251 39.129 25.769 39.1263C26.3158 39.1234 26.7121 39.2064 27.5737 39.5042C27.9862 39.6468 28.3288 39.7584 28.3349 39.7523C28.3699 39.7173 29.1503 37.8226 29.1503 37.7725C29.1503 37.6622 28.0348 37.2536 27.2869 37.0899C26.8979 37.0048 25.2184 36.935 24.8736 36.9895ZM45.4602 37.0121C44.503 37.1295 43.4119 37.4144 42.8872 37.6837L42.7027 37.7785L43.1558 38.8133C43.405 39.3824 43.6148 39.854 43.6221 39.8613C43.6294 39.8685 43.8423 39.7911 44.0952 39.6892C45.2347 39.2301 46.3592 39.0818 46.8228 39.3296C47.1124 39.4843 47.2697 39.7468 47.3049 40.134L47.3329 40.443L47.0798 40.4777C46.9406 40.4968 46.5934 40.5124 46.3084 40.5124C44.593 40.5124 43.1692 40.9269 42.4826 41.6261C41.9783 42.1398 41.7939 42.6714 41.7953 43.6072C41.7966 44.5394 42.0125 45.1668 42.521 45.7155C43.08 46.3189 43.7908 46.5493 44.9275 46.4957C46.0136 46.4445 46.5065 46.2455 47.2143 45.5724L47.6879 45.1222L47.9941 45.7369L48.3003 46.3517H49.4038H50.5072L50.5063 43.0737C50.5053 39.4343 50.5007 39.3759 50.1615 38.6622C49.816 37.9353 49.0322 37.3377 48.09 37.0829C47.7099 36.9801 46.079 36.9362 45.4602 37.0121ZM16.6655 41.7333V46.3517H18.2859H19.9063V41.7333V37.1149H18.2859H16.6655V41.7333ZM31.0098 40.0744C31.0098 41.7022 31.0339 43.2872 31.0632 43.5969C31.2101 45.1444 31.9119 46.0366 33.2767 46.4107C33.6326 46.5083 33.7885 46.5204 34.4083 46.4989C35.0049 46.4782 35.1978 46.4498 35.5429 46.3322C36.0835 46.1479 36.4405 45.9153 36.8119 45.5052C36.9774 45.3224 37.1425 45.1827 37.1788 45.1948C37.215 45.2069 37.3333 45.4662 37.4416 45.771L37.6386 46.3252L38.84 46.3395L40.0413 46.3537V41.7343V37.1149H38.4475H36.8537L36.8526 39.517C36.852 40.8382 36.8283 42.0863 36.7998 42.2907C36.6335 43.4835 36.1995 43.9882 35.3396 43.9887C34.9659 43.9889 34.713 43.8658 34.5301 43.5947C34.2843 43.2303 34.2811 43.1881 34.2636 40.0744L34.2471 37.1149H32.6284H31.0097L31.0098 40.0744ZM47.3555 42.7707C47.3152 43.3837 47.2138 43.6414 46.9064 43.9117C46.3348 44.4144 45.3956 44.3844 45.1283 43.8549C45.017 43.6346 45.0075 43.2294 45.108 42.9892C45.2092 42.7471 45.578 42.4475 45.8751 42.3662C46.1199 42.2992 47.2476 42.216 47.3404 42.2582C47.3666 42.2701 47.3733 42.4992 47.3555 42.7707Z" fill="white"/>
</svg>
